<?xml version="1.0" encoding="utf-8"?>
<!-- Generator: Adobe Illustrator 19.0.0, SVG Export Plug-In . SVG Version: 6.00 Build 0)  -->
<svg version="1.1" id="_x38_55033fa-f203-4bd6-a750-76a03b91c714"
	 xmlns="http://www.w3.org/2000/svg" xmlns:xlink="http://www.w3.org/1999/xlink" x="0px" y="0px" viewBox="-794 917.4 931 758.6"
	 style="enable-background:new -794 917.4 931 758.6;" xml:space="preserve">
<style type="text/css">
	.st0{opacity:0.3;}
	.st1{fill:none;stroke:#2196F3;stroke-width:4;stroke-miterlimit:10;}
	.st2{fill:none;stroke:#2196F3;stroke-width:4;stroke-miterlimit:10;stroke-dasharray:11.85,11.85;}
	.st3{opacity:0.21;fill:none;stroke:#2196F3;stroke-width:4;stroke-miterlimit:10;stroke-dasharray:12;enable-background:new    ;}
	.st4{opacity:0.5;fill:none;stroke:#2196F3;stroke-width:4;stroke-miterlimit:10;stroke-dasharray:12;enable-background:new    ;}
	.st5{opacity:0.21;}
	.st6{fill:none;stroke:#2196F3;stroke-width:4;stroke-miterlimit:10;stroke-dasharray:11.95,11.95;}
	.st7{opacity:0.5;}
	.st8{fill:none;stroke:#2196F3;stroke-width:4;stroke-miterlimit:10;stroke-dasharray:11.56,11.56;}
	.st9{fill:url(#SVGID_1_);}
	.st10{fill:#F2F2F2;}
	.st11{fill:url(#SVGID_2_);}
	.st12{fill:url(#SVGID_3_);}
	.st13{fill:#23F3B8;}
	.st14{fill:url(#SVGID_4_);}
	.st15{fill:#FFFFFF;}
	.st16{fill:#DBDBDB;}
	.st17{opacity:0.3;fill:#80DEEA;enable-background:new    ;}
	.st18{opacity:0.5;fill:#80DEEA;enable-background:new    ;}
	.st19{opacity:0.2;}
</style>
<title>sync4</title>
<g class="st0">
	<path class="st1" d="M-134.3,955.7c1.8,1,3.5,1.9,5.3,2.9"/>
	<path class="st2" d="M-118.8,964.6c105.7,64.3,176.3,180.6,176.3,313.4c0,30.8-3.8,61.6-11.5,91.4"/>
	<path class="st1" d="M44.5,1375.2c-0.5,1.9-1.1,3.9-1.6,5.8"/>
</g>
<path class="st3" d="M-675.5,1278c0-159.3,101.6-294.8,243.5-345.4"/>
<path class="st4" d="M-134.3,1600.3c-53.6,29.1-113.7,44.3-174.7,44.2c-119.5,0-225.7-57.2-292.6-145.8"/>
<g class="st5">
	<path class="st1" d="M-71.8,1347.1c-0.6,1.9-1.1,3.8-1.8,5.7"/>
	<path class="st6" d="M-77.4,1364.2c-35,93.9-125.5,160.8-231.6,160.8c-136.4,0-247-110.6-247-247s110.6-247,247-247
		c54.1-0.1,106.8,17.7,149.8,50.6"/>
	<path class="st1" d="M-154.5,1085.3c1.6,1.3,3.1,2.5,4.6,3.8"/>
</g>
<g class="st7">
	<path class="st1" d="M-330,1139.6c2-0.3,4-0.5,6-0.8"/>
	<path class="st8" d="M-312.5,1138.1c1.2,0,2.3,0,3.5,0c77.3,0,140,62.7,140,140c0,23.9-6.1,47.4-17.7,68.2"/>
	<path class="st1" d="M-189.7,1351.2c-1,1.7-2.1,3.4-3.3,5"/>
</g>
<linearGradient id="SVGID_1_" gradientUnits="userSpaceOnUse" x1="635.4514" y1="1602.5845" x2="569.7177" y2="1727.0914" gradientTransform="matrix(0.8843 0.4668 0.4668 -0.8843 -1302.8262 2582.9648)">
	<stop  offset="0" style="stop-color:#808080;stop-opacity:0.25"/>
	<stop  offset="0.54" style="stop-color:#808080;stop-opacity:0.12"/>
	<stop  offset="1" style="stop-color:#808080;stop-opacity:0.1"/>
</linearGradient>
<path class="st9" d="M36.8,1462.4L-64,1409.2l52.6-86.1c0.9-1.4,2.7-1.9,4.1-1.1l84.1,44.4c1.4,0.8,2,2.5,1.4,4L36.8,1462.4z"/>
<path class="st10" d="M35.2,1457.8l-94.3-49.8l49.1-80.4c0.9-1.4,2.7-1.9,4.1-1.1l78.4,41.4c1.4,0.8,2,2.5,1.4,4L35.2,1457.8z"/>
<linearGradient id="SVGID_2_" gradientUnits="userSpaceOnUse" x1="639.4267" y1="1363.1892" x2="573.7115" y2="1487.6608" gradientTransform="matrix(0.8843 0.4668 0.4668 -0.8843 -1302.8262 2582.9648)">
	<stop  offset="0" style="stop-color:#808080;stop-opacity:0.25"/>
	<stop  offset="0.54" style="stop-color:#808080;stop-opacity:0.12"/>
	<stop  offset="1" style="stop-color:#808080;stop-opacity:0.1"/>
</linearGradient>
<path class="st11" d="M-29.7,1588.4l-100.8-53.2l-41.4,92c-0.7,1.5,0,3.2,1.4,4l84.2,44.4c1.5,0.8,3.3,0.3,4.1-1.1L-29.7,1588.4z"/>
<path class="st10" d="M-34.5,1589.6l-94.3-49.8l-38.7,86c-0.7,1.5,0,3.2,1.4,4l78.4,41.4c1.5,0.8,3.3,0.3,4.1-1.1L-34.5,1589.6z"/>
<linearGradient id="SVGID_3_" gradientUnits="userSpaceOnUse" x1="655.7094" y1="1449.578" x2="554.7459" y2="1640.7946" gradientTransform="matrix(0.8843 0.4668 0.4668 -0.8843 -1302.9094 2582.9514)">
	<stop  offset="0" style="stop-color:#808080;stop-opacity:0.25"/>
	<stop  offset="0.54" style="stop-color:#808080;stop-opacity:0.12"/>
	<stop  offset="1" style="stop-color:#808080;stop-opacity:0.1"/>
</linearGradient>
<path class="st12" d="M-154.2,1530.6l73.1-138.5c0.6-1.1,2-1.6,3.1-1l138.5,73.1c1.1,0.6,1.6,2,1,3.1l-73.1,138.5
	c-0.6,1.1-2,1.6-3.1,1l-138.5-73.1C-154.3,1533.2-154.8,1531.8-154.2,1530.6z"/>
<path class="st10" d="M-76.8,1394.5l134.2,70.8c1.1,0.6,1.6,2,1,3.1l-70.8,134.2c-0.6,1.1-2,1.6-3.1,1l-134.2-70.8
	c-1.1-0.6-1.6-2-1-3.1l70.8-134.2C-79.4,1394.3-78,1393.9-76.8,1394.5z"/>
<path class="st10" d="M42.3,1491.7l5.9,3.1c0.7,0.4,1,1.3,0.6,2l-9.9,18.8c-0.4,0.7-1.3,1-2,0.6l-5.9-3.1c-0.7-0.4-1-1.3-0.6-2
	l9.9-18.8C40.7,1491.6,41.6,1491.3,42.3,1491.7z"/>
<path class="st13" d="M-73.8,1404.3l121.3,64c1.1,0.6,1.6,2,1,3.1l-64,121.3c-0.6,1.1-2,1.6-3.1,1l-121.3-64c-1.1-0.6-1.6-2-1-3.1
	l64-121.3C-76.3,1404.2-74.9,1403.7-73.8,1404.3z"/>
<linearGradient id="SVGID_4_" gradientUnits="userSpaceOnUse" x1="-913.2929" y1="726.7467" x2="-658.252" y2="1328.979" gradientTransform="matrix(0.9208 -0.3899 -0.3899 -0.9208 616.8868 1884.5414)">
	<stop  offset="0" style="stop-color:#808080;stop-opacity:0.25"/>
	<stop  offset="0.54" style="stop-color:#808080;stop-opacity:0.12"/>
	<stop  offset="1" style="stop-color:#808080;stop-opacity:0.1"/>
</linearGradient>
<path class="st14" d="M-758.1,1034.6l274.3-116.2c6.2-2.6,13.4,0.3,16.1,6.5l217.4,513.3c2.6,6.2-0.3,13.4-6.5,16.1l-274.3,116.2
	c-6.2,2.6-13.4-0.3-16.1-6.5l-217.4-513.3C-767.3,1044.4-764.3,1037.2-758.1,1034.6z"/>
<path class="st15" d="M-749.8,1039.6L-486,927.9c6.9-2.9,14.9,0.3,17.9,7.2l210.2,496.3c2.9,6.9-0.3,14.9-7.2,17.9L-529,1561
	c-6.9,2.9-14.9-0.3-17.9-7.2L-757,1057.5C-759.9,1050.5-756.7,1042.5-749.8,1039.6z"/>
<path class="st13" d="M-539.8,966c3.1,12.2-3.1,24.8-14.6,29.7l-99.8,42.3c-11.6,4.9-25,0.6-31.5-10.1l-52.8,22.4
	c-6.1,2.6-8.9,9.5-6.3,15.6c0,0,0,0,0,0l200.5,473.3c2.6,6.1,9.5,8.9,15.6,6.3c0,0,0,0,0,0l252.4-106.9c6.1-2.6,8.9-9.5,6.3-15.6
	c0,0,0,0,0,0l-200.4-473.3c-2.6-6.1-9.5-8.9-15.6-6.3c0,0,0,0,0,0L-539.8,966z"/>
<path class="st16" d="M-639.6,1015.7L-579,990c1-0.4,2.2,0,2.6,1.1l0.1,0.3c0.4,1,0,2.2-1.1,2.6l-60.7,25.7c-1,0.4-2.2,0-2.6-1.1
	l-0.1-0.3C-641.1,1017.3-640.7,1016.2-639.6,1015.7z"/>
<circle class="st16" cx="-562.8" cy="985.1" r="2.6"/>
<circle class="st17" cx="123" cy="942" r="14"/>
<circle class="st17" cx="-21.5" cy="1260.6" r="14"/>
<circle class="st18" cx="-780" cy="999" r="14"/>
<circle class="st17" cx="-766" cy="956" r="14"/>
<g class="st19">
	<path class="st15" d="M-636.2,1045l99.8-42.3c11.5-4.9,17.8-17.5,14.7-29.7l51-21.6l-0.8-1.8c-2.6-6.1-9.5-8.9-15.6-6.3
		c0,0,0,0,0,0l-53.7,22.7c3.1,12.2-3.1,24.8-14.6,29.7l-99.8,42.3c-2.7,1.1-5.5,1.8-8.4,1.9C-656.3,1046.9-645.5,1048.9-636.2,1045z
		"/>
	<path class="st15" d="M-726.9,1072.8c-2.6-6.1,0.3-13,6.3-15.6c0,0,0,0,0,0l45.5-19.3c-4.9-2.1-9-5.6-11.7-10.1l-52.9,22.4
		c-6.1,2.6-8.9,9.5-6.3,15.6c0,0,0,0,0,0l200.5,473.3c2.6,6.1,9.5,8.9,15.6,6.3c0,0,0,0,0,0l2.6-1.1L-726.9,1072.8z"/>
</g>
<g id="XMLID_1_">
	<path id="XMLID_27_" class="st15" d="M-64.8,1498.5c3.9-7,8-13.9,11.7-21c4.1-7.7,12.8-10.2,20.2-5.6c4.6,2.9,9.3,5.5,14.1,7.9
		c3.9,1.9,6.1,4.7,7.3,8.7c2.3,7.8,4.8,15.6,6.4,23.6c0.5,2.4,0.1,4.7-1.1,6.9c-6,10.5-11.8,21.1-17.8,31.6
		c-3.8,6.8-11.8,9-18.6,5.2c-9.7-5.5-19.5-10.9-29.2-16.4c-6.7-3.8-9-11.9-5.3-18.7C-73.1,1513.2-68.9,1505.9-64.8,1498.5z
		 M-58.9,1501.9c-0.4,0.7-0.8,1.5-1.2,2.2c-3.5,6.3-7.1,12.6-10.6,19c-2.5,4.6-1.7,8.2,2.4,10.5c9.6,5.4,19.2,10.8,28.8,16.2
		c4,2.2,7.9,1,10.2-3c5.8-10.3,11.5-20.6,17.3-30.8c1.5-2.7,1-4.6-1.6-6.2c-2.5-1.5-5-3-7.6-4.4c-2.3-1.3-2.7-2.8-1.5-5.1
		c1.5-2.8,3.2-5.6,4.6-8.5c1.1-2.3,0.5-3.7-1.7-5c-5.1-2.9-10.2-5.7-15.3-8.6c-5.8-3.2-9-2.3-12.3,3.5
		C-51.4,1488.3-55.1,1495.1-58.9,1501.9z"/>
	<path id="XMLID_11_" class="st15" d="M-29.5,1469.4c-5.1-1.7-9.1-4.9-13.6-7.3c-4.1-2.2-8.2-4.6-12.3-6.9c-4.1-2.2-7.9-1.1-10.1,3
		c-7.5,13.4-15,26.9-22.7,40.3c-1.8,3.1-0.8,8.4,2.9,10.1c2.4,1.1,4.6,2.6,6.9,3.8c1.2,0.6,1.2,1.2,0.7,2.4c-2.3,4.5-2.3,4.5-6.7,2
		c-3.3-1.9-6.9-3.3-9.1-6.8c-2.8-4.4-3.4-8.9-0.9-13.3c7.9-14.4,15.9-28.7,24.1-43c3.6-6.3,11.1-8,17.5-4.7c6.1,3.1,12,6.6,18,10
		C-32.5,1460.3-30.1,1465-29.5,1469.4z"/>
	<path id="XMLID_2_" class="st15" d="M-60.9,1510.4c5.9-10.3,18.9-13.9,29.1-8c10.5,6.1,13.9,18.6,7.9,29.1
		c-5.8,10.2-18.8,13.8-29,8C-63.1,1533.8-66.7,1520.6-60.9,1510.4z M-56.2,1519.2c4.2,2.4,4.3,2.4,6.4-1.6c0.9-1.7,3-3.4,2.5-4.9
		c-0.6-1.7-3.2-2.2-4.9-3.2c-3.5-2-3.6-2-5.8,1.5c-0.1,0.1-0.2,0.3-0.2,0.4C-61.1,1516.3-61.1,1516.4-56.2,1519.2z M-35.3,1524.9
		c-2.6,4.6-2.6,4.6,1.3,6.7c5.1,2.9,6.2,2.5,8.6-3.1c0.2-0.6,0.4-1.2,0.6-1.7c0.6-1.3,0.1-2-1-2.5c-1.6-0.8-3.3-1.7-4.8-2.7
		c-1.7-1.2-2.8-1.1-3.4,1.1C-34.3,1523.4-34.9,1524.1-35.3,1524.9z M-38,1523.5c2.6-4.6,2.6-4.6-1.9-7.1c-4.4-2.5-4.4-2.5-7,2.1
		c-2.5,4.5-2.5,4.5,1.8,6.9C-40.5,1528-40.5,1528-38,1523.5z M-46.4,1528c-1-0.6-2-1.1-3-1.7c-0.5-0.3-0.9-0.5-1.2,0.3
		c-1.1,2.9-1.7,5.9-1.4,9c0.1,1.2,0.8,1.7,2.1,1.4c1.8-0.4,2.9-1.6,4.2-2.7C-41.8,1530.6-41.8,1530.5-46.4,1528z M-38.4,1513.9
		c4.3,2.4,4.4,2.4,5.5-2.4c0.3-1.3,0.6-2.6,0.5-3.9c0-3-1.2-3.6-3.8-2c-1,0.6-2.1,1.3-2.9,2.2C-42.9,1511.4-42.9,1511.4-38.4,1513.9
		z M-37.7,1503.1c-5.8-1.6-10.5-0.4-15.3,2.6c2.5,1.4,4.6,2.6,6.7,3.8c0.9,0.5,1.3,0.3,2.1-0.4
		C-42.2,1507.1-40.5,1504.9-37.7,1503.1z M-55.1,1534.4c0.2-3.5,1.1-6.2,1.8-8.9c0.2-0.8,0.2-1.3-0.6-1.7c-2.2-1.2-4.5-2.5-7-3.9
		C-60.9,1525.5-59.2,1530.1-55.1,1534.4z M-24.1,1521.9c0.8-5.2-2.1-12.1-5.6-13.5c0,2.9-0.8,5.6-1.8,8.2c-0.4,0.9,0.3,1.2,0.9,1.6
		C-28.5,1519.5-26.4,1520.7-24.1,1521.9z M-31.8,1536.2c-2.5-1.4-4.8-2.7-7.1-4c-0.4-0.2-0.9-0.4-1.3,0c-1.8,2.5-4.1,4.6-7.2,6.7
		C-41.4,1539.9-36.6,1539.3-31.8,1536.2z"/>
</g>
<g id="XMLID_14_">
	<path id="XMLID_30_" class="st15" d="M-528,1256.6c-4.3-11-8.4-22-13.1-32.9c-5-11.8,0.3-24.2,12.3-28.2c7.5-2.6,14.9-5.4,22.1-8.8
		c5.7-2.7,11.1-2.6,16.7-0.2c11.1,4.6,22.3,9,32.9,14.7c3.2,1.7,5.5,4.2,6.8,7.7c6.5,16.6,13,33.1,19.6,49.7
		c4.2,10.7-0.7,21.9-11.4,26.1c-15.3,6-30.6,12.1-45.9,18.1c-10.5,4.1-22-0.8-26.3-11.3C-518.9,1279.8-523.4,1268.2-528,1256.6z
		 M-518.7,1253.1c0.5,1.2,0.9,2.3,1.4,3.5c3.9,9.9,7.8,19.9,11.8,29.8c2.9,7.2,7.7,9.6,14.2,7c15.1-5.9,30.2-11.8,45.3-17.9
		c6.3-2.5,8.6-8.1,6.1-14.4c-6.3-16.2-12.7-32.3-19.1-48.4c-1.7-4.2-4.3-5.4-8.6-3.9c-4.1,1.5-8.1,3-12.1,4.5
		c-3.7,1.4-5.7,0.5-7.2-3.1c-1.8-4.4-3.5-8.9-5.5-13.2c-1.6-3.4-3.7-4.1-7.2-2.7c-8,3.1-16,6.3-24.1,9.5c-9,3.6-11.1,8.2-7.5,17.3
		C-527.1,1231.8-522.9,1242.4-518.7,1253.1z"/>
	<path id="XMLID_29_" class="st15" d="M-528.3,1189.3c-6.7,4.2-14.1,5.8-21,8.7c-6.4,2.6-12.9,5-19.3,7.7c-6.3,2.6-8.6,8-6.1,14.3
		c8.3,21.1,16.8,42.2,24.9,63.4c1.9,4.9,8.8,8.7,14.2,6.1c3.5-1.7,7.2-2.8,10.7-4.3c1.8-0.8,2.6-0.3,3.3,1.5c3,6.8,3.1,6.8-4,9.5
		c-5.2,2-10.2,4.8-16.3,4.1c-7.6-0.9-13.3-4.4-16.1-11.3c-9.1-22.4-18-44.9-26.6-67.4c-3.9-10.1,1.3-20.1,10.9-24.4
		c9.2-4.1,18.7-7.5,28.2-11.2C-541.5,1184.2-533.8,1185.8-528.3,1189.3z"/>
	<path id="XMLID_17_" class="st15" d="M-510.8,1263.2c-6.3-16.3,1.7-34.5,18-40.7c16.7-6.3,34.2,1.5,40.6,18.1
		c6.2,16.1-1.8,34.4-17.8,40.6C-486.1,1287.5-504.5,1279.4-510.8,1263.2z M-496.4,1266c6.6-2.6,6.7-2.7,4.2-8.8
		c-1.1-2.6-1.1-6.5-3.3-7.4c-2.4-0.9-5.4,1.6-8.1,2.6c-5.6,2.1-5.6,2.3-3.7,8.1c0.1,0.2,0.2,0.4,0.2,0.6
		C-504.3,1268.9-504,1269-496.4,1266z M-470.5,1247.5c2.8,7.2,2.8,7.2,8.8,4.8c8-3.2,8.6-4.8,4.5-12.7c-0.4-0.8-1-1.5-1.4-2.3
		c-0.9-1.8-2.1-2-3.9-1.2c-2.5,1.1-5,2.2-7.6,3c-3,0.9-3.9,2.2-1.9,5C-471.2,1245.1-470.9,1246.4-470.5,1247.5z M-474.5,1249.3
		c-2.8-7.2-2.8-7.2-9.9-4.4c-7,2.7-7,2.7-4.1,10c2.8,7,2.8,7,9.6,4.3C-471.7,1256.3-471.7,1256.3-474.5,1249.3z M-477.3,1263.1
		c-1.6,0.6-3.2,1.2-4.8,1.9c-0.8,0.3-1.5,0.6-0.8,1.7c2.3,4,5.2,7.4,9,10c1.5,1,2.6,0.7,3.5-1.1c1.2-2.4,0.9-4.9,0.7-7.3
		C-470,1260.2-470,1260.2-477.3,1263.1z M-485.9,1240.8c6.8-2.7,6.8-2.7,2.4-8.5c-1.2-1.5-2.4-3-3.9-4.2c-3.5-2.7-5.3-1.9-5.8,2.5
		c-0.2,1.8-0.4,3.6-0.3,5.4C-492.9,1243.6-492.9,1243.6-485.9,1240.8z M-497.5,1230c-7.2,5.2-10.3,11.6-11.2,19.9
		c3.9-1.5,7.2-2.9,10.6-4.2c1.4-0.5,1.6-1.2,1.5-2.8C-497.1,1238.9-498.1,1234.9-497.5,1230z M-478,1279c-3.8-3.4-6-7-8.5-10.4
		c-0.8-1-1.3-1.4-2.5-0.9c-3.5,1.4-7,2.8-10.9,4.3C-493.5,1277.3-486.8,1279.7-478,1279z M-463.3,1231.9c-5.1-5.7-15.7-8.9-20.7-6.2
		c3.4,2.7,5.7,6.1,7.7,9.8c0.7,1.3,1.7,0.8,2.6,0.5C-470.3,1234.7-466.9,1233.4-463.3,1231.9z M-454.3,1254c-4,1.6-7.5,3-11.1,4.4
		c-0.6,0.3-1.4,0.6-1.1,1.4c1.2,4.4,1.4,8.9,1,14.4C-458.9,1268.4-455.1,1262.3-454.3,1254z"/>
</g>
</svg>
