<?xml version="1.0" encoding="utf-8"?>
<!-- Generator: Adobe Illustrator 19.0.0, SVG Export Plug-In . SVG Version: 6.00 Build 0)  -->
<svg version="1.1" id="bbc47c66-d48b-4d11-bc2f-9f2748fa4450"
	 xmlns="http://www.w3.org/2000/svg" xmlns:xlink="http://www.w3.org/1999/xlink" x="0px" y="0px" viewBox="-745 1032.4 1028 529.6"
	 style="enable-background:new -745 1032.4 1028 529.6;" xml:space="preserve">
<style type="text/css">
	.st0{fill:#23F3B8;}
	.st1{fill:#3F3D56;}
	.st2{fill:#80DC8E;}
	.st3{fill:#D0CDE1;}
	.st4{fill:#FFFFFF;}
</style>
<title>online_transactions</title>
<rect x="-439" y="1327.8" class="st0" width="343.7" height="234.2"/>
<path class="st1" d="M-76.1,1300.4h-338.2c-2.3,0-4.1,1.8-4.1,4.1v228.7c0,2.3,1.8,4.1,4.1,4.1c0,0,0,0,0,0h338.2
	c2.3,0,4.1-1.8,4.1-4.1c0,0,0,0,0,0v-228.7C-72,1302.3-73.8,1300.4-76.1,1300.4z M-74.7,1533.2c0,0.8-0.6,1.4-1.4,1.4c0,0,0,0,0,0
	h-338.2c-0.8,0-1.4-0.6-1.4-1.4c0,0,0,0,0,0v-228.7c0-0.8,0.6-1.4,1.4-1.4h338.2c0.8,0,1.4,0.6,1.4,1.4V1533.2z"/>
<path class="st1" d="M-398.7,1462h150.7c1.1,0,2,0.9,2,2v13.8c0,1.1-0.9,2-2,2h-150.7c-1.1,0-2-0.9-2-2V1464
	C-400.7,1462.9-399.8,1462-398.7,1462z"/>
<path class="st1" d="M-104.9,1447h-49.3c-2.3,0-4.1,1.8-4.1,4.1c0,0,0,0,0,0v38.3c0,2.3,1.8,4.1,4.1,4.1c0,0,0,0,0,0h49.3
	c2.3,0,4.1-1.8,4.1-4.1c0,0,0,0,0,0v-38.3C-100.8,1448.8-102.6,1447-104.9,1447C-104.9,1447-104.9,1447-104.9,1447z M-103.5,1489.4
	c0,0.8-0.6,1.4-1.4,1.4h-49.3c-0.8,0-1.4-0.6-1.4-1.4v-38.3c0-0.8,0.6-1.4,1.4-1.4c0,0,0,0,0,0h49.3c0.8,0,1.4,0.6,1.4,1.4
	c0,0,0,0,0,0V1489.4z"/>
<path class="st1" d="M-144.3,1455.8h29.6c1.1,0,2,0.9,2,2v3c0,1.1-0.9,2-2,2h-29.6c-1.1,0-2-0.9-2-2v-3
	C-146.3,1456.7-145.4,1455.8-144.3,1455.8z"/>
<path class="st1" d="M-144.3,1466.8h29.6c1.1,0,2,0.9,2,2v3c0,1.1-0.9,2-2,2h-29.6c-1.1,0-2-0.9-2-2v-3
	C-146.3,1467.7-145.4,1466.8-144.3,1466.8z"/>
<path class="st1" d="M-144.3,1477.7h29.6c1.1,0,2,0.9,2,2v3c0,1.1-0.9,2-2,2h-29.6c-1.1,0-2-0.9-2-2v-3
	C-146.3,1478.6-145.4,1477.7-144.3,1477.7z"/>
<path class="st1" d="M-394.6,1316.9h67.2c1.1,0,2,0.9,2,2v26.1c0,1.1-0.9,2-2,2h-67.2c-1.1,0-2-0.9-2-2v-26.1
	C-396.6,1317.8-395.7,1316.9-394.6,1316.9z"/>
<path class="st2" d="M-355.5,1331.9c0,5.3-2.5,9.6-5.5,9.6s-5.5-4.3-5.5-9.6s5.5-9.6,5.5-9.6S-355.5,1326.6-355.5,1331.9z"/>
<polygon class="st1" points="157,1194.3 155,1194.3 155,1417.9 -72,1417.9 -72,1419.9 157,1419.9 "/>
<polygon class="st1" points="-439,1419.9 -668,1419.9 -668,1194.3 -666,1194.3 -666,1417.9 -439,1417.9 "/>
<path class="st1" d="M282.4,1070.3h-1.3v-2.2h1c0.4,0,0.6-0.3,0.6-0.6v-11.5c0-0.4-0.3-0.6-0.6-0.6l0,0h-1v-6.6c0-7.7-6.2-14-14-14
	c0,0,0,0,0,0h-1.4v-1.6c0-0.4-0.3-0.6-0.6-0.6l0,0h-11.5c-0.4,0-0.6,0.3-0.6,0.6c0,0,0,0,0,0v1.6H44.5c-7.7,0-14,6.2-14,14
	c0,0,0,0,0,0v297c0,7.7,6.2,14,14,14c0,0,0,0,0,0h222.7c7.7,0,14-6.2,14-14c0,0,0,0,0,0v-262.6h1.3c0.4,0,0.6-0.3,0.6-0.6v-11.5
	C283,1070.5,282.7,1070.3,282.4,1070.3L282.4,1070.3z"/>
<path class="st3" d="M43.9,1043.8h225.6c1.1,0,1.9,0.9,1.9,1.9v300.6c0,1.1-0.9,1.9-1.9,1.9H43.9c-1.1,0-1.9-0.9-1.9-1.9v-300.6
	C42,1044.7,42.9,1043.8,43.9,1043.8z"/>
<path class="st1" d="M132.4,1193h35.4c1.1,0,2,0.9,2,2v7.7c0,1.1-0.9,2-2,2h-35.4c-1.1,0-2-0.9-2-2v-7.7
	C130.4,1193.9,131.3,1193,132.4,1193z"/>
<path class="st1" d="M84.8,1102.2h130.5c1.1,0,2,0.9,2,2v1c0,1.1-0.9,2-2,2H84.8c-1.1,0-2-0.9-2-2v-1
	C82.8,1103.1,83.7,1102.2,84.8,1102.2z"/>
<path class="st1" d="M84.8,1118h130.5c1.1,0,2,0.9,2,2v1c0,1.1-0.9,2-2,2H84.8c-1.1,0-2-0.9-2-2v-1C82.8,1118.9,83.7,1118,84.8,1118
	z"/>
<path class="st1" d="M84.8,1133.9h130.5c1.1,0,2,0.9,2,2v1c0,1.1-0.9,2-2,2H84.8c-1.1,0-2-0.9-2-2v-1
	C82.8,1134.8,83.7,1133.9,84.8,1133.9z"/>
<path class="st1" d="M84.8,1149.7h130.5c1.1,0,2,0.9,2,2v1c0,1.1-0.9,2-2,2H84.8c-1.1,0-2-0.9-2-2v-1
	C82.8,1150.6,83.7,1149.7,84.8,1149.7z"/>
<path class="st1" d="M84.8,1165.5h130.5c1.1,0,2,0.9,2,2v1c0,1.1-0.9,2-2,2H84.8c-1.1,0-2-0.9-2-2v-1
	C82.8,1166.4,83.7,1165.5,84.8,1165.5z"/>
<circle class="st0" cx="156.7" cy="1281.9" r="41.8"/>
<path class="st1" d="M157.6,1326.6c-28.9,0-52.4-23.5-52.4-52.4c0-28.9,23.5-52.4,52.4-52.4s52.4,23.5,52.4,52.4c0,0,0,0,0,0
	C210,1303.2,186.5,1326.6,157.6,1326.6z M157.6,1223.8c-27.9,0-50.5,22.6-50.5,50.5c0,27.9,22.6,50.5,50.5,50.5
	c27.9,0,50.5-22.6,50.5-50.5c0,0,0,0,0,0C208.1,1246.4,185.5,1223.8,157.6,1223.8z"/>
<path class="st1" d="M-589.5,1120.4h-1.7v-46.9c0-15-12.2-27.2-27.2-27.2c0,0,0,0,0,0h-99.4c-15,0-27.2,12.2-27.2,27.2c0,0,0,0,0,0
	v257.5c0,15,12.2,27.2,27.2,27.2c0,0,0,0,0,0h99.4c15,0,27.2-12.2,27.2-27.2c0,0,0,0,0,0v-177.2h1.7V1120.4z"/>
<path class="st3" d="M-597,1075v257.1c0,11.2-9.1,20.3-20.3,20.3h-99.9c-11.2,0-20.3-9.1-20.3-20.3V1075c0-11.2,9.1-20.3,20.3-20.3
	h12.1c-2,4.9,0.4,10.6,5.3,12.6c1.2,0.5,2.4,0.7,3.6,0.7h57c5.3,0,9.6-4.3,9.6-9.6c0-1.2-0.2-2.5-0.7-3.6h13
	C-606.1,1054.7-597,1063.8-597,1075z"/>
<path class="st1" d="M-678.6,1206.2h22.8c1.1,0,2,0.9,2,2v3.9c0,1.1-0.9,2-2,2h-22.8c-1.1,0-2-0.9-2-2v-3.9
	C-680.6,1207.1-679.7,1206.2-678.6,1206.2z"/>
<path class="st1" d="M-711.3,1144.5h88.1c0.9,0,1.7,0.8,1.7,1.7l0,0c0,0.9-0.8,1.7-1.7,1.7h-88.1c-0.9,0-1.7-0.8-1.7-1.7l0,0
	C-713,1145.2-712.2,1144.5-711.3,1144.5z"/>
<path class="st1" d="M-711.3,1155.2h88.1c0.9,0,1.7,0.8,1.7,1.7l0,0c0,0.9-0.8,1.7-1.7,1.7h-88.1c-0.9,0-1.7-0.8-1.7-1.7l0,0
	C-713,1156-712.2,1155.2-711.3,1155.2z"/>
<path class="st1" d="M-711.3,1166h88.1c0.9,0,1.7,0.8,1.7,1.7v0c0,0.9-0.8,1.7-1.7,1.7h-88.1c-0.9,0-1.7-0.8-1.7-1.7v0
	C-713,1166.7-712.2,1166-711.3,1166z"/>
<path class="st1" d="M-711.3,1176.8h88.1c0.9,0,1.7,0.8,1.7,1.7l0,0c0,0.9-0.8,1.7-1.7,1.7h-88.1c-0.9,0-1.7-0.8-1.7-1.7l0,0
	C-713,1177.5-712.2,1176.8-711.3,1176.8z"/>
<path class="st1" d="M-711.3,1187.5h88.1c0.9,0,1.7,0.8,1.7,1.7l0,0c0,0.9-0.8,1.7-1.7,1.7h-88.1c-0.9,0-1.7-0.8-1.7-1.7l0,0
	C-713,1188.3-712.2,1187.5-711.3,1187.5z"/>
<circle class="st0" cx="-667.3" cy="1279.1" r="28.8"/>
<path class="st1" d="M-666.6,1311c-20,0-36.1-16.2-36.1-36.1s16.2-36.1,36.1-36.1c20,0,36.1,16.2,36.1,36.1v0
	C-630.5,1294.8-646.7,1311-666.6,1311z M-666.6,1240.1c-19.2,0-34.8,15.6-34.8,34.8s15.6,34.8,34.8,34.8s34.8-15.6,34.8-34.8
	C-631.8,1255.7-647.4,1240.1-666.6,1240.1z"/>
<rect x="-597.5" y="1407.6" class="st3" width="28" height="28"/>
<path class="st1" d="M-552.5,1419.6h-34v-34h34V1419.6z M-585,1418.2h31v-31h-31L-585,1418.2z"/>
<rect x="29.5" y="1407.6" class="st3" width="28" height="28"/>
<path class="st1" d="M74.5,1419.6h-34v-34h34V1419.6z M42,1418.2h31v-31H42V1418.2z"/>
<g id="XMLID_1_">
	<path id="XMLID_27_" class="st4" d="M-281.9,1407c0-7,0.1-13.9,0-20.9c-0.2-7.6,5.4-13.2,12.9-12.8c4.7,0.2,9.4,0.3,14,0
		c3.7-0.2,6.6,1,9.2,3.5c5.1,4.9,10.3,9.8,14.9,15.2c1.4,1.6,2.1,3.5,2.1,5.7c-0.1,10.5,0,21,0,31.5c0,6.8-5.1,11.8-11.9,11.8
		c-9.7,0-19.4,0-29.1,0c-6.7,0-11.9-5.2-12-11.9C-282,1421.7-281.9,1414.4-281.9,1407z M-276,1407.1c0,0.7,0,1.5,0,2.2
		c0,6.3,0,12.6,0,18.9c0,4.6,2.2,6.9,6.3,6.9c9.6,0,19.1,0,28.7,0c4,0,6.5-2.6,6.5-6.6c0-10.2,0-20.5,0-30.7c0-2.7-1.2-3.9-3.9-4
		c-2.5-0.1-5.1-0.1-7.6-0.1c-2.3,0-3.3-0.9-3.3-3.3c0-2.8,0-5.6-0.2-8.4c-0.1-2.2-1.2-3-3.4-3.1c-5.1,0-10.2,0-15.3,0
		c-5.7,0-7.8,2.1-7.9,7.9C-276.1,1393.6-276,1400.3-276,1407.1z"/>
	<path id="XMLID_11_" class="st4" d="M-267.5,1370c-4.6,0.9-9,0.2-13.4,0.2c-4.1,0-8.2,0-12.2,0c-4,0-6.4,2.5-6.4,6.6
		c0,13.4,0.1,26.8-0.1,40.2c0,3.1,3,6.7,6.5,6.4c2.3-0.2,4.6,0,6.8,0c1.1,0,1.5,0.4,1.5,1.5c0.2,4.4,0.2,4.4-4.2,4.3
		c-3.3-0.1-6.6,0.4-9.8-1.3c-4-2.1-6.3-5.3-6.4-9.7c-0.1-14.3-0.1-28.5,0-42.8c0.1-6.4,5-10.8,11.2-11c5.9-0.3,11.9-0.1,17.9,0
		C-273.7,1364.4-269.8,1366.9-267.5,1370z"/>
	<path id="XMLID_2_" class="st4" d="M-273.9,1414.4c0.1-10.3,8.4-18.5,18.7-18.4c10.5,0.1,18.4,8.2,18.3,18.7
		c-0.1,10.2-8.4,18.5-18.5,18.4C-265.6,1433-274,1424.6-273.9,1414.4z M-266.6,1419c4.2,0,4.3,0,4.2-3.9c0-1.6,0.8-3.8-0.2-4.7
		c-1.1-1-3.3-0.3-5-0.3c-3.5,0-3.6,0-3.8,3.6c0,0.1,0,0.3,0,0.4C-271.6,1418.9-271.5,1419-266.6,1419z M-248.4,1414.5
		c0,4.6,0,4.6,3.8,4.6c5.1,0,5.8-0.8,5.2-6c-0.1-0.5-0.2-1-0.3-1.6c-0.1-1.2-0.7-1.5-1.9-1.5c-1.6,0.1-3.2,0.1-4.8,0
		c-1.8-0.2-2.6,0.4-2.1,2.3C-248.2,1413-248.4,1413.7-248.4,1414.5z M-251,1414.6c0-4.6,0-4.6-4.5-4.6c-4.4,0-4.4,0-4.4,4.6
		c0,4.5,0,4.5,4.3,4.5C-251,1419-251,1419-251,1414.6z M-255.5,1421.6c-1,0-2,0-3,0c-0.5,0-0.9,0-0.8,0.8c0.4,2.7,1.2,5.2,2.8,7.4
		c0.6,0.9,1.3,0.9,2.2,0.2c1.2-1.1,1.5-2.5,2-3.9C-250.9,1421.6-250.9,1421.6-255.5,1421.6z M-255.4,1407.5c4.3,0,4.3,0,3.1-4.2
		c-0.3-1.1-0.7-2.2-1.2-3.2c-1.3-2.3-2.5-2.2-3.7,0.1c-0.5,0.9-1,1.9-1.3,2.9C-259.8,1407.5-259.8,1407.5-255.4,1407.5z
		 M-259.4,1399c-5,1.3-8.2,4.1-10.5,8.5c2.4,0,4.6,0,6.7,0c0.9,0,1.2-0.3,1.4-1.2C-261.1,1404-260.8,1401.6-259.4,1399z
		 M-259.4,1430.1c-1.4-2.7-1.8-5.2-2.4-7.5c-0.2-0.7-0.4-1-1.2-1c-2.2,0-4.5,0-6.9,0C-267.5,1425.8-264.3,1428.6-259.4,1430.1z
		 M-241.1,1407.5c-1.6-4.3-6.7-8.3-10-7.8c1.3,2.2,1.8,4.6,2.1,7c0.1,0.9,0.7,0.8,1.3,0.8C-245.5,1407.5-243.4,1407.5-241.1,1407.5z
		 M-240.9,1421.6c-2.5,0-4.8,0-7,0c-0.4,0-0.9,0.1-0.9,0.5c-0.3,2.7-1.2,5.2-2.6,8.1C-246.6,1428.5-243.2,1425.9-240.9,1421.6z"/>
</g>
<g id="XMLID_14_">
	<path id="XMLID_30_" class="st4" d="M146.8,1286c0-4.4,0.1-8.8,0-13.1c-0.1-4.8,3.4-8.3,8.1-8.1c2.9,0.1,5.9,0.2,8.8,0
		c2.3-0.1,4.2,0.6,5.8,2.2c3.2,3.1,6.5,6.2,9.4,9.5c0.9,1,1.3,2.2,1.3,3.6c0,6.6,0,13.2,0,19.9c0,4.3-3.2,7.5-7.5,7.5
		c-6.1,0-12.2,0-18.3,0c-4.2,0-7.5-3.3-7.5-7.5C146.8,1295.3,146.8,1290.7,146.8,1286z M150.5,1286.1c0,0.5,0,0.9,0,1.4
		c0,4,0,7.9,0,11.9c0,2.9,1.4,4.4,3.9,4.4c6,0,12.1,0,18.1,0c2.5,0,4.1-1.6,4.1-4.1c0-6.4,0-12.9,0-19.3c0-1.7-0.7-2.5-2.4-2.5
		c-1.6-0.1-3.2-0.1-4.8-0.1c-1.5,0-2.1-0.6-2.1-2.1c0-1.8,0-3.5-0.1-5.3c-0.1-1.4-0.7-1.9-2.1-1.9c-3.2,0-6.4,0-9.6,0
		c-3.6,0-4.9,1.3-4.9,5C150.5,1277.6,150.5,1281.8,150.5,1286.1z"/>
	<path id="XMLID_29_" class="st4" d="M155.9,1262.7c-2.9,0.5-5.7,0.1-8.5,0.1c-2.6,0-5.1,0-7.7,0c-2.5,0-4,1.6-4.1,4.1
		c0,8.4,0.1,16.9,0,25.3c0,1.9,1.9,4.2,4.1,4c1.4-0.1,2.9,0,4.3,0c0.7,0,0.9,0.3,1,1c0.1,2.7,0.1,2.8-2.7,2.7
		c-2.1,0-4.2,0.3-6.2-0.8c-2.5-1.3-4-3.3-4-6.1c-0.1-9-0.1-18,0-26.9c0-4,3.2-6.8,7.1-6.9c3.7-0.2,7.5,0,11.3,0
		C152,1259.2,154.4,1260.8,155.9,1262.7z"/>
	<path id="XMLID_17_" class="st4" d="M151.8,1290.7c0-6.5,5.3-11.7,11.8-11.6c6.6,0.1,11.6,5.2,11.6,11.8c0,6.4-5.3,11.6-11.7,11.6
		C157,1302.4,151.8,1297.1,151.8,1290.7z M156.4,1293.6c2.7,0,2.7,0,2.6-2.5c0-1,0.5-2.4-0.1-3c-0.7-0.6-2.1-0.2-3.2-0.2
		c-2.2,0-2.3,0-2.4,2.3c0,0.1,0,0.2,0,0.3C153.3,1293.5,153.4,1293.6,156.4,1293.6z M167.9,1290.7c0,2.9,0,2.9,2.4,2.9
		c3.2,0,3.6-0.5,3.3-3.8c0-0.3-0.1-0.7-0.2-1c-0.1-0.8-0.5-1-1.2-0.9c-1,0-2,0.1-3,0c-1.1-0.1-1.6,0.2-1.3,1.5
		C168,1289.8,167.9,1290.3,167.9,1290.7z M166.3,1290.8c0-2.9,0-2.9-2.8-2.9c-2.8,0-2.8,0-2.8,2.9c0,2.8,0,2.8,2.7,2.8
		C166.3,1293.6,166.3,1293.6,166.3,1290.8z M163.4,1295.2c-0.6,0-1.3,0-1.9,0c-0.3,0-0.6,0-0.5,0.5c0.3,1.7,0.8,3.3,1.8,4.7
		c0.4,0.5,0.8,0.6,1.4,0.1c0.7-0.7,1-1.6,1.3-2.4C166.4,1295.2,166.3,1295.2,163.4,1295.2z M163.5,1286.3c2.7,0,2.7,0,2-2.6
		c-0.2-0.7-0.4-1.4-0.8-2c-0.8-1.4-1.5-1.4-2.3,0.1c-0.3,0.6-0.6,1.2-0.8,1.8C160.7,1286.3,160.7,1286.3,163.5,1286.3z M161,1281
		c-3.2,0.8-5.1,2.6-6.6,5.3c1.5,0,2.9,0,4.2,0c0.6,0,0.7-0.2,0.9-0.8C159.9,1284.1,160.1,1282.6,161,1281z M161,1300.6
		c-0.9-1.7-1.1-3.3-1.5-4.7c-0.1-0.4-0.3-0.7-0.7-0.7c-1.4,0-2.8,0-4.4,0C155.9,1297.9,157.9,1299.6,161,1300.6z M172.5,1286.3
		c-1-2.7-4.2-5.2-6.3-4.9c0.8,1.4,1.1,2.9,1.3,4.4c0.1,0.5,0.5,0.5,0.8,0.5C169.7,1286.3,171.1,1286.3,172.5,1286.3z M172.6,1295.2
		c-1.6,0-3,0-4.4,0c-0.3,0-0.6,0-0.6,0.3c-0.2,1.7-0.7,3.3-1.6,5.1C169.1,1299.5,171.2,1298,172.6,1295.2z"/>
</g>
<g id="XMLID_33_">
	<path id="XMLID_46_" class="st4" d="M-675.4,1282.8c0-3.5,0.1-6.9,0-10.4c-0.1-3.8,2.7-6.6,6.4-6.4c2.3,0.1,4.7,0.1,7,0
		c1.8-0.1,3.3,0.5,4.6,1.7c2.5,2.5,5.1,4.9,7.4,7.5c0.7,0.8,1,1.7,1,2.8c0,5.2,0,10.5,0,15.7c0,3.4-2.5,5.9-5.9,5.9
		c-4.8,0-9.7,0-14.5,0c-3.3,0-5.9-2.6-6-5.9C-675.4,1290.1-675.4,1286.4-675.4,1282.8z M-672.4,1282.8c0,0.4,0,0.7,0,1.1
		c0,3.1,0,6.3,0,9.4c0,2.3,1.1,3.4,3.1,3.5c4.8,0,9.5,0,14.3,0c2,0,3.2-1.3,3.2-3.3c0-5.1,0-10.2,0-15.3c0-1.3-0.6-1.9-1.9-2
		c-1.3,0-2.5-0.1-3.8-0.1c-1.2,0-1.6-0.5-1.6-1.6c0-1.4,0-2.8-0.1-4.2c-0.1-1.1-0.6-1.5-1.7-1.5c-2.5,0-5.1,0-7.6,0
		c-2.9,0-3.9,1-3.9,3.9C-672.5,1276.1-672.4,1279.5-672.4,1282.8z"/>
	<path id="XMLID_45_" class="st4" d="M-668.2,1264.4c-2.3,0.4-4.5,0.1-6.7,0.1c-2,0-4.1,0-6.1,0c-2,0-3.2,1.3-3.2,3.3
		c0,6.7,0,13.3,0,20c0,1.5,1.5,3.3,3.2,3.2c1.1-0.1,2.3,0,3.4,0c0.6,0,0.7,0.2,0.8,0.8c0.1,2.2,0.1,2.2-2.1,2.2
		c-1.6,0-3.3,0.2-4.9-0.6c-2-1.1-3.1-2.6-3.2-4.8c-0.1-7.1-0.1-14.2,0-21.3c0-3.2,2.5-5.4,5.6-5.5c3-0.1,5.9,0,8.9,0
		C-671.3,1261.6-669.3,1262.8-668.2,1264.4z"/>
	<path id="XMLID_34_" class="st4" d="M-671.4,1286.4c0-5.1,4.2-9.2,9.3-9.2c5.2,0.1,9.2,4.1,9.1,9.3c0,5.1-4.2,9.2-9.2,9.2
		C-667.3,1295.7-671.4,1291.5-671.4,1286.4z M-667.8,1288.8c2.1,0,2.1,0,2.1-2c0-0.8,0.4-1.9-0.1-2.4c-0.6-0.5-1.6-0.1-2.5-0.2
		c-1.8,0-1.8,0-1.9,1.8c0,0.1,0,0.1,0,0.2C-670.2,1288.7-670.2,1288.8-667.8,1288.8z M-658.7,1286.5c0,2.3,0,2.3,1.9,2.3
		c2.5,0,2.9-0.4,2.6-3c0-0.3-0.1-0.5-0.1-0.8c0-0.6-0.4-0.8-0.9-0.7c-0.8,0-1.6,0.1-2.4,0c-0.9-0.1-1.3,0.2-1.1,1.1
		C-658.6,1285.7-658.7,1286.1-658.7,1286.5z M-660,1286.5c0-2.3,0-2.3-2.2-2.3c-2.2,0-2.2,0-2.2,2.3c0,2.2,0,2.2,2.2,2.2
		C-660,1288.8-660,1288.8-660,1286.5z M-662.2,1290c-0.5,0-1,0-1.5,0c-0.2,0-0.5,0-0.4,0.4c0.2,1.3,0.6,2.6,1.4,3.7
		c0.3,0.4,0.7,0.5,1.1,0.1c0.6-0.5,0.8-1.2,1-1.9C-659.9,1290-659.9,1290-662.2,1290z M-662.2,1283c2.1,0,2.2,0,1.6-2.1
		c-0.2-0.5-0.3-1.1-0.6-1.6c-0.6-1.1-1.2-1.1-1.9,0c-0.3,0.5-0.5,0.9-0.7,1.4C-664.4,1283-664.4,1283-662.2,1283z M-664.2,1278.8
		c-2.5,0.6-4.1,2.1-5.2,4.2c1.2,0,2.3,0,3.3,0c0.4,0,0.6-0.2,0.7-0.6C-665,1281.3-664.9,1280.1-664.2,1278.8z M-664.1,1294.3
		c-0.7-1.4-0.9-2.6-1.2-3.7c-0.1-0.3-0.2-0.5-0.6-0.5c-1.1,0-2.2,0-3.5,0C-668.2,1292.1-666.6,1293.5-664.1,1294.3z M-655,1283
		c-0.8-2.1-3.3-4.1-5-3.9c0.6,1.1,0.9,2.3,1.1,3.5c0.1,0.4,0.4,0.4,0.7,0.4C-657.2,1283-656.2,1283-655,1283z M-655,1290
		c-1.3,0-2.4,0-3.5,0c-0.2,0-0.4,0-0.5,0.3c-0.2,1.3-0.6,2.6-1.3,4.1C-657.8,1293.5-656.1,1292.2-655,1290z"/>
</g>
</svg>
